<mxfile host="app.diagrams.net" agent="Mozilla/5.0 (X11; Linux x86_64) AppleWebKit/537.36 (KHTML, like Gecko) Chrome/127.0.0.0 Safari/537.36 Edg/127.0.0.0" version="24.7.6">
  <diagram name="Página-1" id="S0Uy2LUuUVSy4AQ6_C-F">
    <mxGraphModel dx="2610" dy="906" grid="1" gridSize="10" guides="1" tooltips="1" connect="1" arrows="1" fold="1" page="1" pageScale="1" pageWidth="827" pageHeight="1169" math="0" shadow="0">
      <root>
        <mxCell id="0" />
        <mxCell id="1" parent="0" />
        <mxCell id="yRF2DjxuFHSeK7UutHfT-1" value="Motocicleta" style="rounded=0;whiteSpace=wrap;html=1;" parent="1" vertex="1">
          <mxGeometry x="-473" y="490" width="120" height="60" as="geometry" />
        </mxCell>
        <mxCell id="yRF2DjxuFHSeK7UutHfT-2" value="Diagnostico" style="rounded=0;whiteSpace=wrap;html=1;" parent="1" vertex="1">
          <mxGeometry x="-470" y="250" width="120" height="60" as="geometry" />
        </mxCell>
        <mxCell id="yRF2DjxuFHSeK7UutHfT-4" value="Tipo de Servico" style="rounded=0;whiteSpace=wrap;html=1;" parent="1" vertex="1">
          <mxGeometry x="400" y="430" width="120" height="60" as="geometry" />
        </mxCell>
        <mxCell id="yRF2DjxuFHSeK7UutHfT-6" value="Estableciemiento" style="rounded=0;whiteSpace=wrap;html=1;" parent="1" vertex="1">
          <mxGeometry x="100" y="250" width="120" height="60" as="geometry" />
        </mxCell>
        <mxCell id="yRF2DjxuFHSeK7UutHfT-7" value="Usuario" style="rounded=0;whiteSpace=wrap;html=1;" parent="1" vertex="1">
          <mxGeometry x="-473" y="680" width="120" height="60" as="geometry" />
        </mxCell>
        <mxCell id="yRF2DjxuFHSeK7UutHfT-9" value="Servicio" style="rounded=0;whiteSpace=wrap;html=1;" parent="1" vertex="1">
          <mxGeometry x="390" y="250" width="120" height="60" as="geometry" />
        </mxCell>
        <mxCell id="yRF2DjxuFHSeK7UutHfT-10" value="Modelo" style="rounded=0;whiteSpace=wrap;html=1;" parent="1" vertex="1">
          <mxGeometry x="-160" y="490" width="120" height="60" as="geometry" />
        </mxCell>
        <mxCell id="yRF2DjxuFHSeK7UutHfT-11" value="Marca" style="rounded=0;whiteSpace=wrap;html=1;" parent="1" vertex="1">
          <mxGeometry x="-710" y="490" width="120" height="60" as="geometry" />
        </mxCell>
        <mxCell id="yRF2DjxuFHSeK7UutHfT-12" value="Buscar" style="rounded=0;whiteSpace=wrap;html=1;" parent="1" vertex="1">
          <mxGeometry x="-473" y="830" width="120" height="60" as="geometry" />
        </mxCell>
        <mxCell id="ZAS43RlnrxwdhzB3AwsX-1" value="Mecanico" style="rounded=0;whiteSpace=wrap;html=1;" vertex="1" parent="1">
          <mxGeometry x="-160" y="250" width="120" height="60" as="geometry" />
        </mxCell>
        <mxCell id="ZAS43RlnrxwdhzB3AwsX-2" value="Calificacion Y Resena" style="rounded=0;whiteSpace=wrap;html=1;" vertex="1" parent="1">
          <mxGeometry x="100" y="680" width="120" height="60" as="geometry" />
        </mxCell>
        <mxCell id="ZAS43RlnrxwdhzB3AwsX-3" value="Geolocalización" style="rounded=0;whiteSpace=wrap;html=1;" vertex="1" parent="1">
          <mxGeometry x="90" y="60" width="120" height="60" as="geometry" />
        </mxCell>
        <mxCell id="ZAS43RlnrxwdhzB3AwsX-5" value="" style="endArrow=none;html=1;rounded=0;exitX=1;exitY=0.5;exitDx=0;exitDy=0;entryX=0;entryY=0.5;entryDx=0;entryDy=0;" edge="1" parent="1" source="yRF2DjxuFHSeK7UutHfT-2" target="ZAS43RlnrxwdhzB3AwsX-1">
          <mxGeometry width="50" height="50" relative="1" as="geometry">
            <mxPoint x="-250" y="450" as="sourcePoint" />
            <mxPoint x="-200" y="400" as="targetPoint" />
          </mxGeometry>
        </mxCell>
        <mxCell id="ZAS43RlnrxwdhzB3AwsX-10" value="" style="endArrow=none;html=1;rounded=0;" edge="1" parent="1" target="yRF2DjxuFHSeK7UutHfT-6">
          <mxGeometry width="50" height="50" relative="1" as="geometry">
            <mxPoint x="-40" y="280" as="sourcePoint" />
            <mxPoint x="40" y="279.5" as="targetPoint" />
          </mxGeometry>
        </mxCell>
        <mxCell id="ZAS43RlnrxwdhzB3AwsX-11" value="" style="endArrow=none;html=1;rounded=0;entryX=0.5;entryY=1;entryDx=0;entryDy=0;exitX=0.442;exitY=0;exitDx=0;exitDy=0;exitPerimeter=0;" edge="1" parent="1" source="yRF2DjxuFHSeK7UutHfT-6" target="ZAS43RlnrxwdhzB3AwsX-3">
          <mxGeometry width="50" height="50" relative="1" as="geometry">
            <mxPoint x="300" y="360" as="sourcePoint" />
            <mxPoint x="350" y="310" as="targetPoint" />
          </mxGeometry>
        </mxCell>
        <mxCell id="ZAS43RlnrxwdhzB3AwsX-12" value="" style="endArrow=none;html=1;rounded=0;entryX=0;entryY=0.5;entryDx=0;entryDy=0;" edge="1" parent="1" source="yRF2DjxuFHSeK7UutHfT-11" target="yRF2DjxuFHSeK7UutHfT-1">
          <mxGeometry width="50" height="50" relative="1" as="geometry">
            <mxPoint x="-510" y="440" as="sourcePoint" />
            <mxPoint x="-460" y="390" as="targetPoint" />
          </mxGeometry>
        </mxCell>
        <mxCell id="ZAS43RlnrxwdhzB3AwsX-13" value="" style="endArrow=none;html=1;rounded=0;entryX=0;entryY=0.5;entryDx=0;entryDy=0;" edge="1" parent="1" source="yRF2DjxuFHSeK7UutHfT-1" target="yRF2DjxuFHSeK7UutHfT-10">
          <mxGeometry width="50" height="50" relative="1" as="geometry">
            <mxPoint x="-320" y="519.5" as="sourcePoint" />
            <mxPoint x="-203" y="519.5" as="targetPoint" />
          </mxGeometry>
        </mxCell>
        <mxCell id="ZAS43RlnrxwdhzB3AwsX-14" value="" style="endArrow=none;html=1;rounded=0;entryX=0.5;entryY=1;entryDx=0;entryDy=0;exitX=0.5;exitY=0;exitDx=0;exitDy=0;" edge="1" parent="1" source="yRF2DjxuFHSeK7UutHfT-1" target="yRF2DjxuFHSeK7UutHfT-2">
          <mxGeometry width="50" height="50" relative="1" as="geometry">
            <mxPoint x="-450" y="420" as="sourcePoint" />
            <mxPoint x="-400" y="370" as="targetPoint" />
          </mxGeometry>
        </mxCell>
        <mxCell id="ZAS43RlnrxwdhzB3AwsX-15" value="" style="endArrow=none;html=1;rounded=0;entryX=0.5;entryY=1;entryDx=0;entryDy=0;exitX=0.5;exitY=0;exitDx=0;exitDy=0;" edge="1" parent="1" source="yRF2DjxuFHSeK7UutHfT-7" target="yRF2DjxuFHSeK7UutHfT-1">
          <mxGeometry width="50" height="50" relative="1" as="geometry">
            <mxPoint x="-380" y="670" as="sourcePoint" />
            <mxPoint x="-330" y="620" as="targetPoint" />
          </mxGeometry>
        </mxCell>
        <mxCell id="ZAS43RlnrxwdhzB3AwsX-16" value="" style="endArrow=none;html=1;rounded=0;entryX=0.5;entryY=1;entryDx=0;entryDy=0;exitX=0.5;exitY=0;exitDx=0;exitDy=0;" edge="1" parent="1" source="yRF2DjxuFHSeK7UutHfT-12" target="yRF2DjxuFHSeK7UutHfT-7">
          <mxGeometry width="50" height="50" relative="1" as="geometry">
            <mxPoint x="-320" y="820" as="sourcePoint" />
            <mxPoint x="-270" y="770" as="targetPoint" />
          </mxGeometry>
        </mxCell>
        <mxCell id="ZAS43RlnrxwdhzB3AwsX-17" value="" style="endArrow=none;html=1;rounded=0;exitX=1;exitY=0.5;exitDx=0;exitDy=0;entryX=0;entryY=0.5;entryDx=0;entryDy=0;" edge="1" parent="1" source="yRF2DjxuFHSeK7UutHfT-7" target="ZAS43RlnrxwdhzB3AwsX-2">
          <mxGeometry width="50" height="50" relative="1" as="geometry">
            <mxPoint x="-253" y="710" as="sourcePoint" />
            <mxPoint y="730" as="targetPoint" />
          </mxGeometry>
        </mxCell>
        <mxCell id="ZAS43RlnrxwdhzB3AwsX-18" value="" style="endArrow=none;html=1;rounded=0;entryX=0.5;entryY=1;entryDx=0;entryDy=0;exitX=0.5;exitY=0;exitDx=0;exitDy=0;" edge="1" parent="1" source="ZAS43RlnrxwdhzB3AwsX-2" target="yRF2DjxuFHSeK7UutHfT-6">
          <mxGeometry width="50" height="50" relative="1" as="geometry">
            <mxPoint x="150" y="590" as="sourcePoint" />
            <mxPoint x="200" y="540" as="targetPoint" />
          </mxGeometry>
        </mxCell>
        <mxCell id="ZAS43RlnrxwdhzB3AwsX-19" value="" style="endArrow=none;html=1;rounded=0;entryX=0;entryY=0.5;entryDx=0;entryDy=0;exitX=1;exitY=0.5;exitDx=0;exitDy=0;" edge="1" parent="1" source="yRF2DjxuFHSeK7UutHfT-6" target="yRF2DjxuFHSeK7UutHfT-9">
          <mxGeometry width="50" height="50" relative="1" as="geometry">
            <mxPoint x="310" y="410" as="sourcePoint" />
            <mxPoint x="360" y="360" as="targetPoint" />
          </mxGeometry>
        </mxCell>
        <mxCell id="ZAS43RlnrxwdhzB3AwsX-20" value="" style="endArrow=none;html=1;rounded=0;entryX=0.5;entryY=1;entryDx=0;entryDy=0;exitX=0.442;exitY=0.067;exitDx=0;exitDy=0;exitPerimeter=0;" edge="1" parent="1" source="yRF2DjxuFHSeK7UutHfT-4" target="yRF2DjxuFHSeK7UutHfT-9">
          <mxGeometry width="50" height="50" relative="1" as="geometry">
            <mxPoint x="570" y="650" as="sourcePoint" />
            <mxPoint x="620" y="600" as="targetPoint" />
          </mxGeometry>
        </mxCell>
        <mxCell id="ZAS43RlnrxwdhzB3AwsX-21" value="" style="endArrow=none;html=1;rounded=0;entryX=0.5;entryY=1;entryDx=0;entryDy=0;exitX=1;exitY=0.5;exitDx=0;exitDy=0;" edge="1" parent="1" source="yRF2DjxuFHSeK7UutHfT-12" target="yRF2DjxuFHSeK7UutHfT-4">
          <mxGeometry width="50" height="50" relative="1" as="geometry">
            <mxPoint x="440" y="770" as="sourcePoint" />
            <mxPoint x="490" y="720" as="targetPoint" />
            <Array as="points">
              <mxPoint x="460" y="850" />
            </Array>
          </mxGeometry>
        </mxCell>
      </root>
    </mxGraphModel>
  </diagram>
</mxfile>
